# xmcd
#
# Track frame offsets:
#	150
#	14823
#	30812
#	45889
#	63751
#	83056
#	94427
#	110692
#	127563
#	146260
#	162138
#
# Disc length: 2374 seconds
# Revision: 1
# Processed by: cddbd v1.5.2PL0 Copyright (c) Steve Scherf et al.
# Submitted via: dBpowerAMP V12.0
#
DISCID=7909440b
DTITLE=Donica Knight - A Southern Heart
DYEAR=2012
DGENRE=Country
TTITLE0=Girls Go Out
TTITLE1=Let Me Be Your Lover
TTITLE2=Pretty Lips
TTITLE3=Diva
TTITLE4=Your Next Lover
TTITLE5=Annie
TTITLE6=Love Me When I'm Leaving
TTITLE7=Touchy Subject
TTITLE8=Elevator
TTITLE9=Daddy Let You Date
TTITLE10=Bulletproof
EXTD=
EXTT0=
EXTT1=
EXTT2=
EXTT3=
EXTT4=
EXTT5=
EXTT6=
EXTT7=
EXTT8=
EXTT9=
EXTT10=
PLAYORDER=
